<mxfile host="app.diagrams.net" modified="2022-10-05T17:30:08.767Z" agent="5.0 (Windows NT 10.0; Win64; x64) AppleWebKit/537.36 (KHTML, like Gecko) Chrome/104.0.5112.124 YaBrowser/22.9.2.1495 Yowser/2.5 Safari/537.36" etag="YttjEYgu0iXiOCodwMh1" version="20.4.0" type="github">
  <diagram id="VdFKC_h9xf-gXitv9KbJ" name="Страница 1">
    <mxGraphModel dx="851" dy="2811" grid="1" gridSize="10" guides="1" tooltips="1" connect="1" arrows="1" fold="1" page="1" pageScale="1" pageWidth="1654" pageHeight="2336" math="0" shadow="0">
      <root>
        <mxCell id="0" />
        <mxCell id="1" parent="0" />
        <mxCell id="QxK2xaBH7U94x-TdCokO-1" value="" style="edgeStyle=orthogonalEdgeStyle;rounded=0;orthogonalLoop=1;jettySize=auto;html=1;" parent="1" source="QxK2xaBH7U94x-TdCokO-2" target="QxK2xaBH7U94x-TdCokO-4" edge="1">
          <mxGeometry relative="1" as="geometry" />
        </mxCell>
        <mxCell id="QxK2xaBH7U94x-TdCokO-2" value="Начало" style="rounded=1;whiteSpace=wrap;html=1;arcSize=50;" parent="1" vertex="1">
          <mxGeometry x="445" y="-2235" width="60" height="30" as="geometry" />
        </mxCell>
        <mxCell id="QxK2xaBH7U94x-TdCokO-3" value="" style="edgeStyle=orthogonalEdgeStyle;rounded=0;orthogonalLoop=1;jettySize=auto;html=1;" parent="1" source="QxK2xaBH7U94x-TdCokO-4" target="QxK2xaBH7U94x-TdCokO-6" edge="1">
          <mxGeometry relative="1" as="geometry" />
        </mxCell>
        <mxCell id="QxK2xaBH7U94x-TdCokO-4" value="string [ ] startArray" style="shape=parallelogram;perimeter=parallelogramPerimeter;whiteSpace=wrap;html=1;fixedSize=1;" parent="1" vertex="1">
          <mxGeometry x="400" y="-2175" width="150" height="40" as="geometry" />
        </mxCell>
        <mxCell id="QxK2xaBH7U94x-TdCokO-5" value="" style="edgeStyle=orthogonalEdgeStyle;rounded=0;orthogonalLoop=1;jettySize=auto;html=1;" parent="1" source="QxK2xaBH7U94x-TdCokO-6" target="QxK2xaBH7U94x-TdCokO-7" edge="1">
          <mxGeometry relative="1" as="geometry" />
        </mxCell>
        <mxCell id="QxK2xaBH7U94x-TdCokO-6" value="index=0;&lt;br&gt;sum=0;" style="rounded=0;whiteSpace=wrap;html=1;" parent="1" vertex="1">
          <mxGeometry x="395" y="-2095" width="160" height="85" as="geometry" />
        </mxCell>
        <mxCell id="k3AQD-l1bwYQ1r0FK6IG-7" value="ДА" style="edgeStyle=orthogonalEdgeStyle;rounded=0;orthogonalLoop=1;jettySize=auto;html=1;" edge="1" parent="1" source="QxK2xaBH7U94x-TdCokO-7" target="k3AQD-l1bwYQ1r0FK6IG-5">
          <mxGeometry relative="1" as="geometry" />
        </mxCell>
        <mxCell id="k3AQD-l1bwYQ1r0FK6IG-19" style="edgeStyle=orthogonalEdgeStyle;rounded=0;orthogonalLoop=1;jettySize=auto;html=1;entryX=0;entryY=0.5;entryDx=0;entryDy=0;" edge="1" parent="1" source="QxK2xaBH7U94x-TdCokO-7" target="k3AQD-l1bwYQ1r0FK6IG-2">
          <mxGeometry relative="1" as="geometry">
            <Array as="points">
              <mxPoint x="630" y="-1920" />
              <mxPoint x="630" y="-2052" />
            </Array>
          </mxGeometry>
        </mxCell>
        <mxCell id="k3AQD-l1bwYQ1r0FK6IG-20" value="НЕТ" style="edgeLabel;html=1;align=center;verticalAlign=middle;resizable=0;points=[];" vertex="1" connectable="0" parent="k3AQD-l1bwYQ1r0FK6IG-19">
          <mxGeometry x="0.4284" y="1" relative="1" as="geometry">
            <mxPoint as="offset" />
          </mxGeometry>
        </mxCell>
        <mxCell id="QxK2xaBH7U94x-TdCokO-7" value="index&amp;lt;startArray.length" style="rhombus;whiteSpace=wrap;html=1;" parent="1" vertex="1">
          <mxGeometry x="370" y="-1970" width="210" height="100" as="geometry" />
        </mxCell>
        <mxCell id="k3AQD-l1bwYQ1r0FK6IG-11" style="edgeStyle=orthogonalEdgeStyle;rounded=0;orthogonalLoop=1;jettySize=auto;html=1;entryX=0.5;entryY=1;entryDx=0;entryDy=0;" edge="1" parent="1" source="QxK2xaBH7U94x-TdCokO-8" target="k3AQD-l1bwYQ1r0FK6IG-8">
          <mxGeometry relative="1" as="geometry" />
        </mxCell>
        <mxCell id="QxK2xaBH7U94x-TdCokO-8" value="sum=sum+1;&lt;span style=&quot;color: rgba(0, 0, 0, 0); font-family: monospace; font-size: 0px; text-align: start;&quot;&gt;%3CmxGraphModel%3E%3Croot%3E%3CmxCell%20id%3D%220%22%2F%3E%3CmxCell%20id%3D%221%22%20parent%3D%220%22%2F%3E%3CmxCell%20id%3D%222%22%20value%3D%22index%26amp%3Blt%3BstartArray.length%26lt%3Bbr%26gt%3BstartArray%5Bindex%5D.length%26amp%3Blt%3B%3D3%22%20style%3D%22rhombus%3BwhiteSpace%3Dwrap%3Bhtml%3D1%3B%22%20vertex%3D%221%22%20parent%3D%221%22%3E%3CmxGeometry%20x%3D%22370%22%20y%3D%22-1970%22%20width%3D%22210%22%20height%3D%22100%22%20as%3D%22geometry%22%2F%3E%3C%2FmxCell%3E%3C%2Froot%3E%3C%2FmxGraphModel%3E&lt;/span&gt;&lt;span style=&quot;color: rgba(0, 0, 0, 0); font-family: monospace; font-size: 0px; text-align: start;&quot;&gt;%3CmxGraphModel%3E%3Croot%3E%3CmxCell%20id%3D%220%22%2F%3E%3CmxCell%20id%3D%221%22%20parent%3D%220%22%2F%3E%3CmxCell%20id%3D%222%22%20value%3D%22index%26amp%3Blt%3BstartArray.length%26lt%3Bbr%26gt%3BstartArray%5Bindex%5D.length%26amp%3Blt%3B%3D3%22%20style%3D%22rhombus%3BwhiteSpace%3Dwrap%3Bhtml%3D1%3B%22%20vertex%3D%221%22%20parent%3D%221%22%3E%3CmxGeometry%20x%3D%22370%22%20y%3D%22-1970%22%20width%3D%22210%22%20height%3D%22100%22%20as%3D%22geometry%22%2F%3E%3C%2FmxCell%3E%3C%2Froot%3E%3C%2FmxGraphModel%3E&lt;/span&gt;&lt;span style=&quot;color: rgba(0, 0, 0, 0); font-family: monospace; font-size: 0px; text-align: start;&quot;&gt;%3CmxGraphModel%3E%3Croot%3E%3CmxCell%20id%3D%220%22%2F%3E%3CmxCell%20id%3D%221%22%20parent%3D%220%22%2F%3E%3CmxCell%20id%3D%222%22%20value%3D%22index%26amp%3Blt%3BstartArray.length%26lt%3Bbr%26gt%3BstartArray%5Bindex%5D.length%26amp%3Blt%3B%3D3%22%20style%3D%22rhombus%3BwhiteSpace%3Dwrap%3Bhtml%3D1%3B%22%20vertex%3D%221%22%20parent%3D%221%22%3E%3CmxGeometry%20x%3D%22370%22%20y%3D%22-1970%22%20width%3D%22210%22%20height%3D%22100%22%20as%3D%22geometry%22%2F%3E%3C%2FmxCell%3E%3C%2Froot%3E%3C%2FmxGraphModel%3E&lt;/span&gt;" style="rounded=0;whiteSpace=wrap;html=1;" parent="1" vertex="1">
          <mxGeometry x="397.5" y="-1690" width="155" height="60" as="geometry" />
        </mxCell>
        <mxCell id="QxK2xaBH7U94x-TdCokO-16" value="" style="edgeStyle=orthogonalEdgeStyle;rounded=0;orthogonalLoop=1;jettySize=auto;html=1;" parent="1" source="QxK2xaBH7U94x-TdCokO-11" target="QxK2xaBH7U94x-TdCokO-15" edge="1">
          <mxGeometry relative="1" as="geometry" />
        </mxCell>
        <mxCell id="QxK2xaBH7U94x-TdCokO-11" value="print(newArray)" style="shape=parallelogram;perimeter=parallelogramPerimeter;whiteSpace=wrap;html=1;fixedSize=1;" parent="1" vertex="1">
          <mxGeometry x="1090" y="-1950" width="120" height="60" as="geometry" />
        </mxCell>
        <mxCell id="QxK2xaBH7U94x-TdCokO-15" value="Конец" style="rounded=1;whiteSpace=wrap;html=1;arcSize=50;" parent="1" vertex="1">
          <mxGeometry x="1280" y="-1845" width="60" height="30" as="geometry" />
        </mxCell>
        <mxCell id="k3AQD-l1bwYQ1r0FK6IG-14" value="ДА" style="edgeStyle=orthogonalEdgeStyle;rounded=0;orthogonalLoop=1;jettySize=auto;html=1;" edge="1" parent="1" source="k3AQD-l1bwYQ1r0FK6IG-1" target="k3AQD-l1bwYQ1r0FK6IG-13">
          <mxGeometry relative="1" as="geometry" />
        </mxCell>
        <mxCell id="k3AQD-l1bwYQ1r0FK6IG-26" value="" style="edgeStyle=orthogonalEdgeStyle;rounded=0;orthogonalLoop=1;jettySize=auto;html=1;" edge="1" parent="1" source="k3AQD-l1bwYQ1r0FK6IG-1" target="QxK2xaBH7U94x-TdCokO-11">
          <mxGeometry relative="1" as="geometry" />
        </mxCell>
        <mxCell id="k3AQD-l1bwYQ1r0FK6IG-27" value="НЕТ" style="edgeLabel;html=1;align=center;verticalAlign=middle;resizable=0;points=[];" vertex="1" connectable="0" parent="k3AQD-l1bwYQ1r0FK6IG-26">
          <mxGeometry x="-0.2017" y="-1" relative="1" as="geometry">
            <mxPoint as="offset" />
          </mxGeometry>
        </mxCell>
        <mxCell id="k3AQD-l1bwYQ1r0FK6IG-1" value="index&amp;lt;startArray.length" style="rhombus;whiteSpace=wrap;html=1;" vertex="1" parent="1">
          <mxGeometry x="780" y="-1970" width="210" height="100" as="geometry" />
        </mxCell>
        <mxCell id="k3AQD-l1bwYQ1r0FK6IG-4" value="" style="edgeStyle=orthogonalEdgeStyle;rounded=0;orthogonalLoop=1;jettySize=auto;html=1;" edge="1" parent="1" source="k3AQD-l1bwYQ1r0FK6IG-2" target="k3AQD-l1bwYQ1r0FK6IG-1">
          <mxGeometry relative="1" as="geometry" />
        </mxCell>
        <mxCell id="k3AQD-l1bwYQ1r0FK6IG-2" value="string [ ] newArray;&amp;nbsp;&lt;br&gt;index=0;&lt;br&gt;j=0;" style="rounded=0;whiteSpace=wrap;html=1;" vertex="1" parent="1">
          <mxGeometry x="805" y="-2095" width="160" height="85" as="geometry" />
        </mxCell>
        <mxCell id="k3AQD-l1bwYQ1r0FK6IG-6" value="ДА" style="edgeStyle=orthogonalEdgeStyle;rounded=0;orthogonalLoop=1;jettySize=auto;html=1;" edge="1" parent="1" source="k3AQD-l1bwYQ1r0FK6IG-5" target="QxK2xaBH7U94x-TdCokO-8">
          <mxGeometry relative="1" as="geometry" />
        </mxCell>
        <mxCell id="k3AQD-l1bwYQ1r0FK6IG-10" style="edgeStyle=orthogonalEdgeStyle;rounded=0;orthogonalLoop=1;jettySize=auto;html=1;entryX=0.5;entryY=1;entryDx=0;entryDy=0;" edge="1" parent="1" source="k3AQD-l1bwYQ1r0FK6IG-5" target="k3AQD-l1bwYQ1r0FK6IG-8">
          <mxGeometry relative="1" as="geometry" />
        </mxCell>
        <mxCell id="k3AQD-l1bwYQ1r0FK6IG-12" value="НЕТ" style="edgeLabel;html=1;align=center;verticalAlign=middle;resizable=0;points=[];" vertex="1" connectable="0" parent="k3AQD-l1bwYQ1r0FK6IG-10">
          <mxGeometry x="-0.5841" y="1" relative="1" as="geometry">
            <mxPoint as="offset" />
          </mxGeometry>
        </mxCell>
        <mxCell id="k3AQD-l1bwYQ1r0FK6IG-5" value="startArray[index].length&amp;lt;=3" style="rhombus;whiteSpace=wrap;html=1;" vertex="1" parent="1">
          <mxGeometry x="370" y="-1840" width="210" height="100" as="geometry" />
        </mxCell>
        <mxCell id="k3AQD-l1bwYQ1r0FK6IG-9" value="" style="edgeStyle=orthogonalEdgeStyle;rounded=0;orthogonalLoop=1;jettySize=auto;html=1;" edge="1" parent="1" source="k3AQD-l1bwYQ1r0FK6IG-8" target="QxK2xaBH7U94x-TdCokO-7">
          <mxGeometry relative="1" as="geometry" />
        </mxCell>
        <mxCell id="k3AQD-l1bwYQ1r0FK6IG-8" value="index++;" style="rounded=0;whiteSpace=wrap;html=1;" vertex="1" parent="1">
          <mxGeometry x="230" y="-1950" width="85" height="60" as="geometry" />
        </mxCell>
        <mxCell id="k3AQD-l1bwYQ1r0FK6IG-17" value="ДА" style="edgeStyle=orthogonalEdgeStyle;rounded=0;orthogonalLoop=1;jettySize=auto;html=1;" edge="1" parent="1" source="k3AQD-l1bwYQ1r0FK6IG-13" target="k3AQD-l1bwYQ1r0FK6IG-16">
          <mxGeometry relative="1" as="geometry" />
        </mxCell>
        <mxCell id="k3AQD-l1bwYQ1r0FK6IG-22" style="edgeStyle=orthogonalEdgeStyle;rounded=0;orthogonalLoop=1;jettySize=auto;html=1;entryX=0.5;entryY=1;entryDx=0;entryDy=0;" edge="1" parent="1" source="k3AQD-l1bwYQ1r0FK6IG-13" target="k3AQD-l1bwYQ1r0FK6IG-18">
          <mxGeometry relative="1" as="geometry" />
        </mxCell>
        <mxCell id="k3AQD-l1bwYQ1r0FK6IG-24" value="НЕТ" style="edgeLabel;html=1;align=center;verticalAlign=middle;resizable=0;points=[];" vertex="1" connectable="0" parent="k3AQD-l1bwYQ1r0FK6IG-22">
          <mxGeometry x="-0.7001" y="1" relative="1" as="geometry">
            <mxPoint as="offset" />
          </mxGeometry>
        </mxCell>
        <mxCell id="k3AQD-l1bwYQ1r0FK6IG-13" value="startArray[index].length&amp;lt;=3" style="rhombus;whiteSpace=wrap;html=1;" vertex="1" parent="1">
          <mxGeometry x="780" y="-1840" width="210" height="100" as="geometry" />
        </mxCell>
        <mxCell id="k3AQD-l1bwYQ1r0FK6IG-21" style="edgeStyle=orthogonalEdgeStyle;rounded=0;orthogonalLoop=1;jettySize=auto;html=1;entryX=0.5;entryY=1;entryDx=0;entryDy=0;" edge="1" parent="1" source="k3AQD-l1bwYQ1r0FK6IG-16" target="k3AQD-l1bwYQ1r0FK6IG-18">
          <mxGeometry relative="1" as="geometry" />
        </mxCell>
        <mxCell id="k3AQD-l1bwYQ1r0FK6IG-16" value="newArray[ j ]=startArray[index]&lt;br&gt;j++;" style="rounded=0;whiteSpace=wrap;html=1;" vertex="1" parent="1">
          <mxGeometry x="801.25" y="-1690" width="167.5" height="60" as="geometry" />
        </mxCell>
        <mxCell id="k3AQD-l1bwYQ1r0FK6IG-25" value="" style="edgeStyle=orthogonalEdgeStyle;rounded=0;orthogonalLoop=1;jettySize=auto;html=1;" edge="1" parent="1" source="k3AQD-l1bwYQ1r0FK6IG-18" target="k3AQD-l1bwYQ1r0FK6IG-1">
          <mxGeometry relative="1" as="geometry" />
        </mxCell>
        <mxCell id="k3AQD-l1bwYQ1r0FK6IG-18" value="index++;" style="rounded=0;whiteSpace=wrap;html=1;" vertex="1" parent="1">
          <mxGeometry x="660" y="-1950" width="75" height="60" as="geometry" />
        </mxCell>
      </root>
    </mxGraphModel>
  </diagram>
</mxfile>
